<svg width="169" height="25" viewBox="0 0 169 25" fill="none" xmlns="http://www.w3.org/2000/svg">
<path d="M2 11.1011L8.16667 20L24 2" stroke="#FFC812" stroke-opacity="0.66" stroke-width="3" stroke-linecap="round" stroke-linejoin="round"/>
<path d="M36.9659 7.01705V5.45455H47.875V7.01705H43.3011V20H41.5398V7.01705H36.9659ZM52.092 20.2557C51.4007 20.2557 50.7733 20.1255 50.2099 19.8651C49.6464 19.5999 49.199 19.2188 48.8675 18.7216C48.5361 18.2197 48.3704 17.6136 48.3704 16.9034C48.3704 16.2784 48.4935 15.7718 48.7397 15.3835C48.9859 14.9905 49.315 14.6828 49.7269 14.4602C50.1388 14.2377 50.5934 14.072 51.0906 13.9631C51.5924 13.8494 52.0967 13.7595 52.6033 13.6932C53.2662 13.608 53.8036 13.544 54.2156 13.5014C54.6322 13.4541 54.9353 13.3759 55.1246 13.267C55.3188 13.1581 55.4158 12.9687 55.4158 12.6989V12.642C55.4158 11.9413 55.2241 11.3968 54.8406 11.0085C54.4618 10.6203 53.8865 10.4261 53.1147 10.4261C52.3145 10.4261 51.6871 10.6013 51.2326 10.9517C50.7781 11.3021 50.4585 11.6761 50.2738 12.0739L48.6829 11.5057C48.967 10.8428 49.3458 10.3267 49.8192 9.95739C50.2975 9.58333 50.8183 9.32292 51.3817 9.17614C51.9499 9.02462 52.5086 8.94886 53.0579 8.94886C53.4083 8.94886 53.8107 8.99148 54.2653 9.0767C54.7246 9.1572 55.1673 9.32528 55.5934 9.58097C56.0243 9.83665 56.3817 10.2225 56.6658 10.7386C56.9499 11.2547 57.092 11.946 57.092 12.8125V20H55.4158V18.5227H55.3306C55.217 18.7595 55.0276 19.0128 54.7624 19.2827C54.4973 19.5526 54.1445 19.7822 53.7042 19.9716C53.2638 20.161 52.7264 20.2557 52.092 20.2557ZM52.3477 18.75C53.0105 18.75 53.5692 18.6198 54.0238 18.3594C54.4831 18.099 54.8287 17.7628 55.0607 17.3509C55.2975 16.9389 55.4158 16.5057 55.4158 16.0511V14.517C55.3448 14.6023 55.1886 14.6804 54.9471 14.7514C54.7103 14.8177 54.4357 14.8769 54.1232 14.929C53.8155 14.9763 53.5148 15.0189 53.2212 15.0568C52.9324 15.09 52.698 15.1184 52.5181 15.142C52.0825 15.1989 51.6753 15.2912 51.2965 15.419C50.9225 15.5421 50.6194 15.7292 50.3874 15.9801C50.1602 16.2263 50.0465 16.5625 50.0465 16.9886C50.0465 17.571 50.262 18.0114 50.6928 18.3097C51.1284 18.6032 51.68 18.75 52.3477 18.75ZM67.8786 11.5341L66.3729 11.9602C66.2782 11.7093 66.1385 11.4654 65.9538 11.2287C65.7739 10.9872 65.5277 10.7884 65.2152 10.6321C64.9027 10.4759 64.5026 10.3977 64.0149 10.3977C63.3473 10.3977 62.791 10.5516 62.3459 10.8594C61.9055 11.1624 61.6854 11.5483 61.6854 12.017C61.6854 12.4337 61.8369 12.7628 62.1399 13.0043C62.4429 13.2457 62.9164 13.447 63.5604 13.608L65.1797 14.0057C66.1551 14.2424 66.8819 14.6046 67.3601 15.0923C67.8383 15.5753 68.0774 16.1979 68.0774 16.9602C68.0774 17.5852 67.8975 18.1439 67.5376 18.6364C67.1825 19.1288 66.6854 19.517 66.0462 19.8011C65.407 20.0852 64.6636 20.2273 63.8161 20.2273C62.7034 20.2273 61.7824 19.9858 61.0533 19.5028C60.3241 19.0199 59.8625 18.3144 59.6683 17.3864L61.2592 16.9886C61.4107 17.5758 61.6972 18.0161 62.1186 18.3097C62.5447 18.6032 63.1011 18.75 63.7876 18.75C64.5689 18.75 65.1892 18.5843 65.6484 18.2528C66.1125 17.9167 66.3445 17.5142 66.3445 17.0455C66.3445 16.6667 66.2119 16.3494 65.9467 16.0938C65.6816 15.8333 65.2744 15.6392 64.7251 15.5114L62.907 15.0852C61.9079 14.8485 61.174 14.4815 60.7053 13.9844C60.2412 13.4825 60.0092 12.8551 60.0092 12.1023C60.0092 11.4867 60.1821 10.9422 60.5277 10.4688C60.8781 9.99527 61.3539 9.62358 61.9553 9.35369C62.5613 9.08381 63.2479 8.94886 64.0149 8.94886C65.0945 8.94886 65.942 9.18561 66.5575 9.65909C67.1778 10.1326 67.6181 10.7576 67.8786 11.5341ZM72.163 16.0227L72.1346 13.9489H72.4755L77.2482 9.09091H79.3221L74.2369 14.233H74.0948L72.163 16.0227ZM70.6005 20V5.45455H72.2766V20H70.6005ZM77.5323 20L73.271 14.6023L74.4641 13.4375L79.663 20H77.5323ZM87.3317 5.45455H89.4339L94.3771 17.5284H94.5476L99.4908 5.45455H101.593V20H99.9453V8.94886H99.8033L95.2578 20H93.6669L89.1214 8.94886H88.9794V20H87.3317V5.45455ZM108.108 20.2557C107.416 20.2557 106.789 20.1255 106.225 19.8651C105.662 19.5999 105.215 19.2188 104.883 18.7216C104.552 18.2197 104.386 17.6136 104.386 16.9034C104.386 16.2784 104.509 15.7718 104.755 15.3835C105.002 14.9905 105.331 14.6828 105.743 14.4602C106.154 14.2377 106.609 14.072 107.106 13.9631C107.608 13.8494 108.112 13.7595 108.619 13.6932C109.282 13.608 109.819 13.544 110.231 13.5014C110.648 13.4541 110.951 13.3759 111.14 13.267C111.334 13.1581 111.431 12.9687 111.431 12.6989V12.642C111.431 11.9413 111.24 11.3968 110.856 11.0085C110.477 10.6203 109.902 10.4261 109.13 10.4261C108.33 10.4261 107.703 10.6013 107.248 10.9517C106.794 11.3021 106.474 11.6761 106.289 12.0739L104.699 11.5057C104.983 10.8428 105.361 10.3267 105.835 9.95739C106.313 9.58333 106.834 9.32292 107.397 9.17614C107.966 9.02462 108.524 8.94886 109.074 8.94886C109.424 8.94886 109.826 8.99148 110.281 9.0767C110.74 9.1572 111.183 9.32528 111.609 9.58097C112.04 9.83665 112.397 10.2225 112.681 10.7386C112.966 11.2547 113.108 11.946 113.108 12.8125V20H111.431V18.5227H111.346C111.233 18.7595 111.043 19.0128 110.778 19.2827C110.513 19.5526 110.16 19.7822 109.72 19.9716C109.279 20.161 108.742 20.2557 108.108 20.2557ZM108.363 18.75C109.026 18.75 109.585 18.6198 110.039 18.3594C110.499 18.099 110.844 17.7628 111.076 17.3509C111.313 16.9389 111.431 16.5057 111.431 16.0511V14.517C111.36 14.6023 111.204 14.6804 110.963 14.7514C110.726 14.8177 110.451 14.8769 110.139 14.929C109.831 14.9763 109.53 15.0189 109.237 15.0568C108.948 15.09 108.714 15.1184 108.534 15.142C108.098 15.1989 107.691 15.2912 107.312 15.419C106.938 15.5421 106.635 15.7292 106.403 15.9801C106.176 16.2263 106.062 16.5625 106.062 16.9886C106.062 17.571 106.278 18.0114 106.708 18.3097C107.144 18.6032 107.696 18.75 108.363 18.75ZM117.843 13.4375V20H116.167V9.09091H117.786V10.7955H117.928C118.184 10.2415 118.572 9.7964 119.093 9.46023C119.614 9.11932 120.286 8.94886 121.11 8.94886C121.849 8.94886 122.495 9.10038 123.049 9.40341C123.603 9.7017 124.034 10.1562 124.342 10.767C124.649 11.3731 124.803 12.1402 124.803 13.0682V20H123.127V13.1818C123.127 12.3248 122.905 11.6572 122.46 11.179C122.014 10.696 121.404 10.4545 120.627 10.4545C120.092 10.4545 119.614 10.5705 119.192 10.8026C118.776 11.0346 118.447 11.3731 118.205 11.8182C117.964 12.2633 117.843 12.803 117.843 13.4375ZM131.076 20.2557C130.385 20.2557 129.758 20.1255 129.194 19.8651C128.631 19.5999 128.183 19.2188 127.852 18.7216C127.52 18.2197 127.355 17.6136 127.355 16.9034C127.355 16.2784 127.478 15.7718 127.724 15.3835C127.97 14.9905 128.299 14.6828 128.711 14.4602C129.123 14.2377 129.578 14.072 130.075 13.9631C130.577 13.8494 131.081 13.7595 131.588 13.6932C132.251 13.608 132.788 13.544 133.2 13.5014C133.617 13.4541 133.92 13.3759 134.109 13.267C134.303 13.1581 134.4 12.9687 134.4 12.6989V12.642C134.4 11.9413 134.208 11.3968 133.825 11.0085C133.446 10.6203 132.871 10.4261 132.099 10.4261C131.299 10.4261 130.672 10.6013 130.217 10.9517C129.762 11.3021 129.443 11.6761 129.258 12.0739L127.667 11.5057C127.951 10.8428 128.33 10.3267 128.804 9.95739C129.282 9.58333 129.803 9.32292 130.366 9.17614C130.934 9.02462 131.493 8.94886 132.042 8.94886C132.393 8.94886 132.795 8.99148 133.25 9.0767C133.709 9.1572 134.152 9.32528 134.578 9.58097C135.009 9.83665 135.366 10.2225 135.65 10.7386C135.934 11.2547 136.076 11.946 136.076 12.8125V20H134.4V18.5227H134.315C134.201 18.7595 134.012 19.0128 133.747 19.2827C133.482 19.5526 133.129 19.7822 132.689 19.9716C132.248 20.161 131.711 20.2557 131.076 20.2557ZM131.332 18.75C131.995 18.75 132.554 18.6198 133.008 18.3594C133.467 18.099 133.813 17.7628 134.045 17.3509C134.282 16.9389 134.4 16.5057 134.4 16.0511V14.517C134.329 14.6023 134.173 14.6804 133.931 14.7514C133.695 14.8177 133.42 14.8769 133.108 14.929C132.8 14.9763 132.499 15.0189 132.206 15.0568C131.917 15.09 131.682 15.1184 131.502 15.142C131.067 15.1989 130.66 15.2912 130.281 15.419C129.907 15.5421 129.604 15.7292 129.372 15.9801C129.145 16.2263 129.031 16.5625 129.031 16.9886C129.031 17.571 129.246 18.0114 129.677 18.3097C130.113 18.6032 130.664 18.75 131.332 18.75ZM143.539 24.3182C142.729 24.3182 142.033 24.214 141.451 24.0057C140.869 23.8021 140.383 23.5322 139.995 23.196C139.612 22.8646 139.306 22.5095 139.079 22.1307L140.414 21.1932C140.566 21.392 140.757 21.6193 140.989 21.875C141.221 22.1354 141.539 22.3603 141.941 22.5497C142.348 22.7438 142.881 22.8409 143.539 22.8409C144.42 22.8409 145.147 22.6278 145.719 22.2017C146.292 21.7756 146.579 21.108 146.579 20.1989V17.983H146.437C146.314 18.1818 146.138 18.428 145.911 18.7216C145.689 19.0104 145.367 19.2685 144.945 19.4957C144.529 19.7183 143.965 19.8295 143.255 19.8295C142.374 19.8295 141.584 19.6212 140.883 19.2045C140.187 18.7879 139.635 18.1818 139.228 17.3864C138.826 16.5909 138.624 15.625 138.624 14.4886C138.624 13.3712 138.821 12.3982 139.214 11.5696C139.607 10.7363 140.154 10.0923 140.854 9.63778C141.555 9.1785 142.365 8.94886 143.283 8.94886C143.994 8.94886 144.557 9.06723 144.974 9.30398C145.395 9.53598 145.717 9.80114 145.94 10.0994C146.167 10.393 146.342 10.6345 146.465 10.8239H146.636V9.09091H148.255V20.3125C148.255 21.25 148.042 22.0123 147.616 22.5994C147.194 23.1913 146.626 23.6245 145.911 23.8991C145.201 24.1785 144.41 24.3182 143.539 24.3182ZM143.482 18.3239C144.155 18.3239 144.723 18.17 145.187 17.8622C145.651 17.5545 146.004 17.1117 146.245 16.5341C146.487 15.9564 146.607 15.2652 146.607 14.4602C146.607 13.6742 146.489 12.9806 146.252 12.3793C146.015 11.7779 145.665 11.3068 145.201 10.9659C144.737 10.625 144.164 10.4545 143.482 10.4545C142.772 10.4545 142.18 10.6345 141.707 10.9943C141.238 11.3542 140.885 11.8371 140.648 12.4432C140.416 13.0492 140.3 13.7216 140.3 14.4602C140.3 15.2178 140.419 15.8878 140.656 16.4702C140.897 17.0478 141.252 17.5024 141.721 17.8338C142.194 18.1605 142.781 18.3239 143.482 18.3239ZM155.897 20.2273C154.846 20.2273 153.939 19.9953 153.177 19.5312C152.419 19.0625 151.835 18.4091 151.423 17.571C151.015 16.7282 150.812 15.7481 150.812 14.6307C150.812 13.5133 151.015 12.5284 151.423 11.6761C151.835 10.8191 152.407 10.1515 153.141 9.6733C153.88 9.19034 154.742 8.94886 155.727 8.94886C156.295 8.94886 156.856 9.04356 157.41 9.23295C157.964 9.42235 158.468 9.73011 158.923 10.1562C159.377 10.5777 159.739 11.1364 160.009 11.8324C160.279 12.5284 160.414 13.3854 160.414 14.4034V15.1136H152.005V13.6648H158.71C158.71 13.0492 158.586 12.5 158.34 12.017C158.099 11.5341 157.753 11.1529 157.303 10.8736C156.858 10.5942 156.333 10.4545 155.727 10.4545C155.059 10.4545 154.481 10.6203 153.994 10.9517C153.511 11.2784 153.139 11.7045 152.879 12.2301C152.618 12.7557 152.488 13.3191 152.488 13.9205V14.8864C152.488 15.7102 152.63 16.4086 152.914 16.9815C153.203 17.5497 153.603 17.983 154.114 18.2812C154.626 18.5748 155.22 18.7216 155.897 18.7216C156.337 18.7216 156.735 18.66 157.09 18.5369C157.45 18.4091 157.76 18.2197 158.021 17.9688C158.281 17.7131 158.482 17.3958 158.624 17.017L160.244 17.4716C160.073 18.0208 159.787 18.5038 159.384 18.9205C158.982 19.3324 158.485 19.6544 157.893 19.8864C157.301 20.1136 156.636 20.2273 155.897 20.2273ZM162.964 20V9.09091H164.583V10.7386H164.697C164.896 10.1989 165.255 9.76089 165.776 9.42472C166.297 9.08854 166.884 8.92045 167.538 8.92045C167.661 8.92045 167.815 8.92282 167.999 8.92756C168.184 8.93229 168.324 8.93939 168.418 8.94886V10.6534C168.362 10.6392 168.231 10.6179 168.028 10.5895C167.829 10.5563 167.618 10.5398 167.396 10.5398C166.865 10.5398 166.392 10.651 165.975 10.8736C165.563 11.0914 165.237 11.3944 164.995 11.7827C164.758 12.1662 164.64 12.6042 164.64 13.0966V20H162.964Z" fill="white"/>
</svg>
